<svg width="142" height="31" viewBox="0 0 142 31" fill="none" xmlns="http://www.w3.org/2000/svg">
<path d="M128.443 3.14844V8.7207C128.443 9.69336 128.408 10.6191 128.338 11.498C128.279 12.377 128.232 12.998 128.197 13.3613H128.479C128.9 12.6816 129.398 12.1309 129.973 11.709C130.559 11.2871 131.203 10.9766 131.906 10.7773C132.609 10.5781 133.365 10.4785 134.174 10.4785C135.592 10.4785 136.828 10.7305 137.883 11.2344C138.938 11.7266 139.758 12.5059 140.344 13.5723C140.93 14.627 141.223 15.998 141.223 17.6855V30.5H135.861V19.0215C135.861 17.6152 135.604 16.5547 135.088 15.8398C134.572 15.125 133.775 14.7676 132.697 14.7676C131.619 14.7676 130.77 15.0195 130.148 15.5234C129.527 16.0156 129.088 16.748 128.83 17.7207C128.572 18.6816 128.443 19.8594 128.443 21.2539V30.5H123.082V3.14844H128.443Z" fill="#FAFAFA"/>
<path d="M115.717 26.5801C116.303 26.5801 116.871 26.5215 117.422 26.4043C117.984 26.2871 118.541 26.1406 119.092 25.9648V29.9551C118.518 30.2129 117.803 30.4238 116.947 30.5879C116.104 30.7637 115.178 30.8516 114.17 30.8516C112.998 30.8516 111.943 30.6641 111.006 30.2891C110.08 29.9023 109.348 29.2402 108.809 28.3027C108.281 27.3535 108.018 26.0352 108.018 24.3477V14.873H105.451V12.6055L108.404 10.8125L109.951 6.66406H113.379V10.8477H118.881V14.873H113.379V24.3477C113.379 25.0977 113.59 25.6602 114.012 26.0352C114.445 26.3984 115.014 26.5801 115.717 26.5801Z" fill="#FAFAFA"/>
<path fill-rule="evenodd" clip-rule="evenodd" d="M101.795 30.5V10.8477H96.4336V30.5H101.795Z" fill="#FAFAFA"/>
<ellipse cx="4" cy="4.5" rx="4" ry="4.5" transform="matrix(1 0 0 -1 95.12 9)" fill="#F4C430"/>
<path d="M91.0547 10.4785C91.3242 10.4785 91.6348 10.4961 91.9863 10.5312C92.3496 10.5547 92.6426 10.5898 92.8652 10.6367L92.4609 15.6641C92.2852 15.6055 92.0332 15.5645 91.7051 15.541C91.3887 15.5059 91.1133 15.4883 90.8789 15.4883C90.1875 15.4883 89.5137 15.5762 88.8574 15.752C88.2129 15.9277 87.6328 16.2148 87.1172 16.6133C86.6016 17 86.1914 17.5156 85.8867 18.1602C85.5938 18.793 85.4473 19.5723 85.4473 20.498V30.5H80.0859V10.8477H84.1465L84.9375 14.1523H85.2012C85.5879 13.4844 86.0684 12.875 86.6426 12.3242C87.2285 11.7617 87.8906 11.3164 88.6289 10.9883C89.3789 10.6484 90.1875 10.4785 91.0547 10.4785Z" fill="#FAFAFA"/>
<path d="M66.9199 10.4785C68.7363 10.4785 70.3008 10.8301 71.6133 11.5332C72.9258 12.2246 73.9395 13.2324 74.6543 14.5566C75.3691 15.8809 75.7266 17.498 75.7266 19.4082V22.0098H63.0527C63.1113 23.5215 63.5625 24.7109 64.4062 25.5781C65.2617 26.4336 66.4453 26.8613 67.957 26.8613C69.2109 26.8613 70.3594 26.7324 71.4023 26.4746C72.4453 26.2168 73.5176 25.8301 74.6191 25.3145V29.4629C73.6465 29.9434 72.627 30.2949 71.5605 30.5176C70.5059 30.7402 69.2227 30.8516 67.7109 30.8516C65.7422 30.8516 63.9961 30.4883 62.4727 29.7617C60.9609 29.0352 59.7715 27.9277 58.9043 26.4395C58.0488 24.9512 57.6211 23.0762 57.6211 20.8145C57.6211 18.5176 58.0078 16.6074 58.7812 15.084C59.5664 13.5488 60.6562 12.4004 62.0508 11.6387C63.4453 10.8652 65.0684 10.4785 66.9199 10.4785ZM66.9551 14.293C65.9121 14.293 65.0449 14.627 64.3535 15.2949C63.6738 15.9629 63.2812 17.0117 63.1758 18.4414H70.6992C70.6875 17.6445 70.541 16.9355 70.2598 16.3145C69.9902 15.6934 69.5801 15.2012 69.0293 14.8379C68.4902 14.4746 67.7988 14.293 66.9551 14.293Z" fill="#FAFAFA"/>
<path d="M46.3184 10.4785C48.416 10.4785 50.1035 11.0527 51.3809 12.2012C52.6582 13.3379 53.2969 15.166 53.2969 17.6855V30.5H47.9355V19.0215C47.9355 17.6152 47.6777 16.5547 47.1621 15.8398C46.6582 15.125 45.8613 14.7676 44.7715 14.7676C43.1309 14.7676 42.0117 15.3242 41.4141 16.4375C40.8164 17.5508 40.5176 19.1562 40.5176 21.2539V30.5H35.1562V10.8477H39.252L39.9727 13.3613H40.2715C40.6934 12.6816 41.2148 12.1309 41.8359 11.709C42.4688 11.2871 43.166 10.9766 43.9277 10.7773C44.7012 10.5781 45.498 10.4785 46.3184 10.4785Z" fill="#FAFAFA"/>
<path d="M22.6582 10.4785C24.7559 10.4785 26.4434 11.0527 27.7207 12.2012C28.998 13.3379 29.6367 15.166 29.6367 17.6855V30.5H24.2754V19.0215C24.2754 17.6152 24.0176 16.5547 23.502 15.8398C22.998 15.125 22.2012 14.7676 21.1113 14.7676C19.4707 14.7676 18.3516 15.3242 17.7539 16.4375C17.1562 17.5508 16.8574 19.1562 16.8574 21.2539V30.5H11.4961V10.8477H15.5918L16.3125 13.3613H16.6113C17.0332 12.6816 17.5547 12.1309 18.1758 11.709C18.8086 11.2871 19.5059 10.9766 20.2676 10.7773C21.041 10.5781 21.8379 10.4785 22.6582 10.4785Z" fill="#FAFAFA"/>
<path d="M0 30.5V4.80078H5.44922V30.5H0Z" fill="#FAFAFA"/>
</svg>
